<svg width="48" height="48" viewBox="0 0 48 48" fill="none" xmlns="http://www.w3.org/2000/svg">
<path d="M12 14.5H13V15.5H12V14.5Z" fill="black"/>
<path d="M13 13.5H14V14.5H13V13.5Z" fill="black"/>
<path d="M14 12.5H15V13.5H14V12.5Z" fill="black"/>
<path d="M15 12.5H16V13.5H15V12.5Z" fill="black"/>
<path d="M16 12.5H17V13.5H16V12.5Z" fill="black"/>
<path d="M17 12.5H18V13.5H17V12.5Z" fill="black"/>
<path d="M18 12.5H19V13.5H18V12.5Z" fill="black"/>
<path d="M19 12.5H20V13.5H19V12.5Z" fill="black"/>
<path d="M20 12.5H21V13.5H20V12.5Z" fill="black"/>
<path d="M21 12.5H22V13.5H21V12.5Z" fill="black"/>
<path d="M22 13.5H23V14.5H22V13.5Z" fill="black"/>
<path d="M23 14.5H24V15.5H23V14.5Z" fill="black"/>
<path d="M10 15.5H11V16.5H10V15.5Z" fill="black"/>
<path d="M9 16.5H10V17.5H9V16.5Z" fill="black"/>
<path d="M8 17.5H9V18.5H8V17.5Z" fill="black"/>
<path d="M8 18.5H9V19.5H8V18.5Z" fill="black"/>
<path d="M8 19.5H9V20.5H8V19.5Z" fill="black"/>
<path d="M8 20.5H9V21.5H8V20.5Z" fill="black"/>
<path d="M8 21.5H9V22.5H8V21.5Z" fill="black"/>
<path d="M8 22.5H9V23.5H8V22.5Z" fill="black"/>
<path d="M8 23.5H9V24.5H8V23.5Z" fill="black"/>
<path d="M8 24.5H9V25.5H8V24.5Z" fill="black"/>
<path d="M8 25.5H9V26.5H8V25.5Z" fill="black"/>
<path d="M8 26.5H9V27.5H8V26.5Z" fill="black"/>
<path d="M8 27.5H9V28.5H8V27.5Z" fill="black"/>
<path d="M8 28.5H9V29.5H8V28.5Z" fill="black"/>
<path d="M8 29.5H9V30.5H8V29.5Z" fill="black"/>
<path d="M8 30.5H9V31.5H8V30.5Z" fill="black"/>
<path d="M8 31.5H9V32.5H8V31.5Z" fill="black"/>
<path d="M8 32.5H9V33.5H8V32.5Z" fill="black"/>
<path d="M9 33.5H10V34.5H9V33.5Z" fill="black"/>
<path d="M10 34.5H11V35.5H10V34.5Z" fill="black"/>
<path d="M11 34.5H12V35.5H11V34.5Z" fill="black"/>
<path d="M12 34.5H13V35.5H12V34.5Z" fill="black"/>
<path d="M13 34.5H14V35.5H13V34.5Z" fill="black"/>
<path d="M14 34.5H15V35.5H14V34.5Z" fill="black"/>
<path d="M15 34.5H16V35.5H15V34.5Z" fill="black"/>
<path d="M16 34.5H17V35.5H16V34.5Z" fill="black"/>
<path d="M17 34.5H18V35.5H17V34.5Z" fill="black"/>
<path d="M18 34.5H19V35.5H18V34.5Z" fill="black"/>
<path d="M19 34.5H20V35.5H19V34.5Z" fill="black"/>
<path d="M20 34.5H21V35.5H20V34.5Z" fill="black"/>
<path d="M21 34.5H22V35.5H21V34.5Z" fill="black"/>
<path d="M22 34.5H23V35.5H22V34.5Z" fill="black"/>
<path d="M23 34.5H24V35.5H23V34.5Z" fill="black"/>
<path d="M24 34.5H25V35.5H24V34.5Z" fill="black"/>
<path d="M25 34.5H26V35.5H25V34.5Z" fill="black"/>
<path d="M26 34.5H27V35.5H26V34.5Z" fill="black"/>
<path d="M27 34.5H28V35.5H27V34.5Z" fill="black"/>
<path d="M28 34.5H29V35.5H28V34.5Z" fill="black"/>
<path d="M29 34.5H30V35.5H29V34.5Z" fill="black"/>
<path d="M30 34.5H31V35.5H30V34.5Z" fill="black"/>
<path d="M31 34.5H32V35.5H31V34.5Z" fill="black"/>
<path d="M32 34.5H33V35.5H32V34.5Z" fill="black"/>
<path d="M33 34.5H34V35.5H33V34.5Z" fill="black"/>
<path d="M34 34.5H35V35.5H34V34.5Z" fill="black"/>
<path d="M35 34.5H36V35.5H35V34.5Z" fill="black"/>
<path d="M36 34.5H37V35.5H36V34.5Z" fill="black"/>
<path d="M37 34.5H38V35.5H37V34.5Z" fill="black"/>
<path d="M38 33.5H39V34.5H38V33.5Z" fill="black"/>
<path d="M11 15.5H12V16.5H11V15.5Z" fill="black"/>
<path d="M12 15.5H13V16.5H12V15.5Z" fill="black"/>
<path d="M13 15.5H14V16.5H13V15.5Z" fill="black"/>
<path d="M14 15.5H15V16.5H14V15.5Z" fill="black"/>
<path d="M15 15.5H16V16.5H15V15.5Z" fill="black"/>
<path d="M16 15.5H17V16.5H16V15.5Z" fill="black"/>
<path d="M17 15.5H18V16.5H17V15.5Z" fill="black"/>
<path d="M18 15.5H19V16.5H18V15.5Z" fill="black"/>
<path d="M19 15.5H20V16.5H19V15.5Z" fill="black"/>
<path d="M20 15.5H21V16.5H20V15.5Z" fill="black"/>
<path d="M21 15.5H22V16.5H21V15.5Z" fill="black"/>
<path d="M22 15.5H23V16.5H22V15.5Z" fill="black"/>
<path d="M23 15.5H24V16.5H23V15.5Z" fill="black"/>
<path d="M24 15.5H25V16.5H24V15.5Z" fill="black"/>
<path d="M25 15.5H26V16.5H25V15.5Z" fill="black"/>
<path d="M26 15.5H27V16.5H26V15.5Z" fill="black"/>
<path d="M27 15.5H28V16.5H27V15.5Z" fill="black"/>
<path d="M28 15.5H29V16.5H28V15.5Z" fill="black"/>
<path d="M29 15.5H30V16.5H29V15.5Z" fill="black"/>
<path d="M30 15.5H31V16.5H30V15.5Z" fill="black"/>
<path d="M31 15.5H32V16.5H31V15.5Z" fill="black"/>
<path d="M32 15.5H33V16.5H32V15.5Z" fill="black"/>
<path d="M33 15.5H34V16.5H33V15.5Z" fill="black"/>
<path d="M34 15.5H35V16.5H34V15.5Z" fill="black"/>
<path d="M35 15.5H36V16.5H35V15.5Z" fill="black"/>
<path d="M36 15.5H37V16.5H36V15.5Z" fill="black"/>
<path d="M37 15.5H38V16.5H37V15.5Z" fill="black"/>
<path d="M38 16.5H39V17.5H38V16.5Z" fill="black"/>
<path d="M39 17.5H40V18.5H39V17.5Z" fill="black"/>
<path d="M39 18.5H40V19.5H39V18.5Z" fill="black"/>
<path d="M39 19.5H40V20.5H39V19.5Z" fill="black"/>
<path d="M39 20.5H40V21.5H39V20.5Z" fill="black"/>
<path d="M39 21.5H40V22.5H39V21.5Z" fill="black"/>
<path d="M39 22.5H40V23.5H39V22.5Z" fill="black"/>
<path d="M39 23.5H40V24.5H39V23.5Z" fill="black"/>
<path d="M39 24.5H40V25.5H39V24.5Z" fill="black"/>
<path d="M39 25.5H40V26.5H39V25.5Z" fill="black"/>
<path d="M39 26.5H40V27.5H39V26.5Z" fill="black"/>
<path d="M39 27.5H40V28.5H39V27.5Z" fill="black"/>
<path d="M39 28.5H40V29.5H39V28.5Z" fill="black"/>
<path d="M39 29.5H40V30.5H39V29.5Z" fill="black"/>
<path d="M39 30.5H40V31.5H39V30.5Z" fill="black"/>
<path d="M39 31.5H40V32.5H39V31.5Z" fill="black"/>
<path d="M39 32.5H40V33.5H39V32.5Z" fill="black"/>
</svg>
