<svg width="48" height="48" viewBox="0 0 48 48" fill="none" xmlns="http://www.w3.org/2000/svg">
<path d="M10 27.5H11V28.5H10V27.5Z" fill="black"/>
<path d="M10 17.5H11V18.5H10V17.5Z" fill="black"/>
<path d="M9 20.5H10V21.5H9V20.5Z" fill="black"/>
<path d="M38 20.5H39V21.5H38V20.5Z" fill="black"/>
<path d="M9 24.5H10V25.5H9V24.5Z" fill="black"/>
<path d="M38 24.5H39V25.5H38V24.5Z" fill="black"/>
<path d="M9 24.5H10V25.5H9V24.5Z" fill="black"/>
<path d="M38 24.5H39V25.5H38V24.5Z" fill="black"/>
<path d="M9 23.5H10V24.5H9V23.5Z" fill="black"/>
<path d="M38 23.5H39V24.5H38V23.5Z" fill="black"/>
<path d="M37 17.5H38V18.5H37V17.5Z" fill="black"/>
<path d="M36 15.5H37V16.5H36V15.5Z" fill="black"/>
<path d="M35 14.5H36V15.5H35V14.5Z" fill="black"/>
<path d="M34 13.5H35V14.5H34V13.5Z" fill="black"/>
<path d="M33 12.5H34V13.5H33V12.5Z" fill="black"/>
<path d="M32 11.5H33V12.5H32V11.5Z" fill="black"/>
<path d="M31 10.5H32V11.5H31V10.5Z" fill="black"/>
<path d="M16 10.5H17V11.5H16V10.5Z" fill="black"/>
<path d="M17 10.5H18V11.5H17V10.5Z" fill="black"/>
<path d="M17 11.5H18V12.5H17V11.5Z" fill="black"/>
<path d="M16 12.5H17V13.5H16V12.5Z" fill="black"/>
<path d="M18 12.5H19V13.5H18V12.5Z" fill="black"/>
<path d="M19 11.5H20V12.5H19V11.5Z" fill="black"/>
<path d="M20 10.5H21V11.5H20V10.5Z" fill="black"/>
<path d="M15 13.5H16V14.5H15V13.5Z" fill="black"/>
<path d="M14 14.5H15V15.5H14V14.5Z" fill="black"/>
<path d="M21 15.5H22V16.5H21V15.5Z" fill="black"/>
<path d="M26 28.5H27V29.5H26V28.5Z" fill="black"/>
<path d="M27 29.5H28V30.5H27V29.5Z" fill="black"/>
<path d="M22 20.5H23V21.5H22V20.5Z" fill="black"/>
<path d="M23 19.5H24V20.5H23V19.5Z" fill="black"/>
<path d="M25 29.5H26V30.5H25V29.5Z" fill="black"/>
<path d="M17 13.5H18V14.5H17V13.5Z" fill="black"/>
<path d="M16 14.5H17V15.5H16V14.5Z" fill="black"/>
<path d="M18 14.5H19V15.5H18V14.5Z" fill="black"/>
<path d="M19 13.5H20V14.5H19V13.5Z" fill="black"/>
<path d="M20 12.5H21V13.5H20V12.5Z" fill="black"/>
<path d="M15 15.5H16V16.5H15V15.5Z" fill="black"/>
<path d="M14 16.5H15V17.5H14V16.5Z" fill="black"/>
<path d="M13 17.5H14V18.5H13V17.5Z" fill="black"/>
<path d="M12 16.5H13V17.5H12V16.5Z" fill="black"/>
<path d="M13 15.5H14V16.5H13V15.5Z" fill="black"/>
<path d="M21 11.5H22V12.5H21V11.5Z" fill="black"/>
<path d="M22 12.5H23V13.5H22V12.5Z" fill="black"/>
<path d="M25 12.5H26V13.5H25V12.5Z" fill="black"/>
<path d="M26 11.5H27V12.5H26V11.5Z" fill="black"/>
<path d="M23 15.5H24V16.5H23V15.5Z" fill="black"/>
<path d="M24 14.5H25V15.5H24V14.5Z" fill="black"/>
<path d="M25 15.5H26V16.5H25V15.5Z" fill="black"/>
<path d="M30 15.5H31V16.5H30V15.5Z" fill="black"/>
<path d="M31 14.5H32V15.5H31V14.5Z" fill="black"/>
<path d="M32 13.5H33V14.5H32V13.5Z" fill="black"/>
<path d="M33 14.5H34V15.5H33V14.5Z" fill="black"/>
<path d="M34 15.5H35V16.5H34V15.5Z" fill="black"/>
<path d="M35 16.5H36V17.5H35V16.5Z" fill="black"/>
<path d="M24 20.5H25V21.5H24V20.5Z" fill="black"/>
<path d="M21 25.5H22V26.5H21V25.5Z" fill="black"/>
<path d="M28 30.5H29V31.5H28V30.5Z" fill="black"/>
<path d="M29 31.5H30V32.5H29V31.5Z" fill="black"/>
<path d="M30 23.5H31V24.5H30V23.5Z" fill="black"/>
<path d="M32 23.5H33V24.5H32V23.5Z" fill="black"/>
<path d="M34 23.5H35V24.5H34V23.5Z" fill="black"/>
<path d="M36 23.5H37V24.5H36V23.5Z" fill="black"/>
<path d="M37 22.5H38V23.5H37V22.5Z" fill="black"/>
<path d="M35 22.5H36V23.5H35V22.5Z" fill="black"/>
<path d="M33 22.5H34V23.5H33V22.5Z" fill="black"/>
<path d="M31 22.5H32V23.5H31V22.5Z" fill="black"/>
<path d="M32 21.5H33V22.5H32V21.5Z" fill="black"/>
<path d="M34 21.5H35V22.5H34V21.5Z" fill="black"/>
<path d="M36 21.5H37V22.5H36V21.5Z" fill="black"/>
<path d="M33 20.5H34V21.5H33V20.5Z" fill="black"/>
<path d="M33 18.5H34V19.5H33V18.5Z" fill="black"/>
<path d="M32 17.5H33V18.5H32V17.5Z" fill="black"/>
<path d="M31 18.5H32V19.5H31V18.5Z" fill="black"/>
<path d="M30 19.5H31V20.5H30V19.5Z" fill="black"/>
<path d="M29 18.5H30V19.5H29V18.5Z" fill="black"/>
<path d="M28 15.5H29V16.5H28V15.5Z" fill="black"/>
<path d="M29 14.5H30V15.5H29V14.5Z" fill="black"/>
<path d="M25 19.5H26V20.5H25V19.5Z" fill="black"/>
<path d="M26 20.5H27V21.5H26V20.5Z" fill="black"/>
<path d="M31 26.5H32V27.5H31V26.5Z" fill="black"/>
<path d="M33 26.5H34V27.5H33V26.5Z" fill="black"/>
<path d="M28 34.5H29V35.5H28V34.5Z" fill="black"/>
<path d="M24 31.5H25V30.5H24V31.5Z" fill="black"/>
<path d="M23 30.5H24V29.5H23V30.5Z" fill="black"/>
<path d="M22 29.5H23V28.5H22V29.5Z" fill="black"/>
<path d="M22 30.5H21V29.5H22V30.5Z" fill="black"/>
<path d="M21 29.5H20V28.5H21V29.5Z" fill="black"/>
<path d="M20 28.5H19V27.5H20V28.5Z" fill="black"/>
<path d="M22 16.5H23V17.5H22V16.5Z" fill="black"/>
<path d="M24 16.5H25V17.5H24V16.5Z" fill="black"/>
<path d="M23 17.5H24V18.5H23V17.5Z" fill="black"/>
<path d="M25 17.5H26V18.5H25V17.5Z" fill="black"/>
<path d="M30 17.5H31V18.5H30V17.5Z" fill="black"/>
<path d="M31 16.5H32V17.5H31V16.5Z" fill="black"/>
<path d="M32 15.5H33V16.5H32V15.5Z" fill="black"/>
<path d="M33 16.5H34V17.5H33V16.5Z" fill="black"/>
<path d="M34 17.5H35V18.5H34V17.5Z" fill="black"/>
<path d="M35 18.5H36V19.5H35V18.5Z" fill="black"/>
<path d="M24 22.5H25V23.5H24V22.5Z" fill="black"/>
<path d="M21 27.5H22V28.5H21V27.5Z" fill="black"/>
<path d="M28 32.5H29V33.5H28V32.5Z" fill="black"/>
<path d="M29 33.5H30V34.5H29V33.5Z" fill="black"/>
<path d="M30 25.5H31V26.5H30V25.5Z" fill="black"/>
<path d="M32 25.5H33V26.5H32V25.5Z" fill="black"/>
<path d="M34 25.5H35V26.5H34V25.5Z" fill="black"/>
<path d="M36 25.5H37V26.5H36V25.5Z" fill="black"/>
<path d="M37 24.5H38V25.5H37V24.5Z" fill="black"/>
<path d="M35 24.5H36V25.5H35V24.5Z" fill="black"/>
<path d="M33 24.5H34V25.5H33V24.5Z" fill="black"/>
<path d="M31 24.5H32V25.5H31V24.5Z" fill="black"/>
<path d="M27 10.5H28V11.5H27V10.5Z" fill="black"/>
<path d="M28 11.5H29V12.5H28V11.5Z" fill="black"/>
<path d="M27 12.5H28V13.5H27V12.5Z" fill="black"/>
<path d="M26 13.5H27V14.5H26V13.5Z" fill="black"/>
<path d="M21 17.5H22V18.5H21V17.5Z" fill="black"/>
<path d="M26 30.5H27V31.5H26V30.5Z" fill="black"/>
<path d="M27 31.5H28V32.5H27V31.5Z" fill="black"/>
<path d="M22 22.5H23V23.5H22V22.5Z" fill="black"/>
<path d="M23 21.5H24V22.5H23V21.5Z" fill="black"/>
<path d="M25 31.5H26V32.5H25V31.5Z" fill="black"/>
<path d="M17 15.5H18V16.5H17V15.5Z" fill="black"/>
<path d="M16 16.5H17V17.5H16V16.5Z" fill="black"/>
<path d="M18 16.5H19V17.5H18V16.5Z" fill="black"/>
<path d="M19 15.5H20V16.5H19V15.5Z" fill="black"/>
<path d="M20 14.5H21V15.5H20V14.5Z" fill="black"/>
<path d="M15 17.5H16V18.5H15V17.5Z" fill="black"/>
<path d="M14 18.5H15V19.5H14V18.5Z" fill="black"/>
<path d="M21 19.5H22V20.5H21V19.5Z" fill="black"/>
<path d="M26 32.5H27V33.5H26V32.5Z" fill="black"/>
<path d="M27 33.5H28V34.5H27V33.5Z" fill="black"/>
<path d="M22 24.5H23V25.5H22V24.5Z" fill="black"/>
<path d="M23 23.5H24V24.5H23V23.5Z" fill="black"/>
<path d="M25 33.5H26V34.5H25V33.5Z" fill="black"/>
<path d="M17 17.5H18V18.5H17V17.5Z" fill="black"/>
<path d="M16 18.5H17V19.5H16V18.5Z" fill="black"/>
<path d="M18 18.5H19V19.5H18V18.5Z" fill="black"/>
<path d="M19 17.5H20V18.5H19V17.5Z" fill="black"/>
<path d="M20 16.5H21V17.5H20V16.5Z" fill="black"/>
<path d="M15 19.5H16V20.5H15V19.5Z" fill="black"/>
<path d="M14 20.5H15V21.5H14V20.5Z" fill="black"/>
<path d="M21 21.5H22V22.5H21V21.5Z" fill="black"/>
<path d="M26 34.5H27V35.5H26V34.5Z" fill="black"/>
<path d="M27 35.5H28V36.5H27V35.5Z" fill="black"/>
<path d="M22 26.5H23V27.5H22V26.5Z" fill="black"/>
<path d="M23 25.5H24V26.5H23V25.5Z" fill="black"/>
<path d="M25 35.5H26V36.5H25V35.5Z" fill="black"/>
<path d="M17 19.5H18V20.5H17V19.5Z" fill="black"/>
<path d="M16 20.5H17V21.5H16V20.5Z" fill="black"/>
<path d="M18 20.5H19V21.5H18V20.5Z" fill="black"/>
<path d="M19 19.5H20V20.5H19V19.5Z" fill="black"/>
<path d="M20 18.5H21V19.5H20V18.5Z" fill="black"/>
<path d="M15 21.5H16V22.5H15V21.5Z" fill="black"/>
<path d="M14 22.5H15V23.5H14V22.5Z" fill="black"/>
<path d="M21 23.5H22V24.5H21V23.5Z" fill="black"/>
<path d="M26 36.5H27V37.5H26V36.5Z" fill="black"/>
<path d="M25 37.5H26V38.5H25V37.5Z" fill="black"/>
<path d="M17 21.5H18V22.5H17V21.5Z" fill="black"/>
<path d="M16 22.5H17V23.5H16V22.5Z" fill="black"/>
<path d="M18 22.5H19V23.5H18V22.5Z" fill="black"/>
<path d="M19 21.5H20V22.5H19V21.5Z" fill="black"/>
<path d="M20 20.5H21V21.5H20V20.5Z" fill="black"/>
<path d="M15 23.5H16V24.5H15V23.5Z" fill="black"/>
<path d="M17 23.5H18V24.5H17V23.5Z" fill="black"/>
<path d="M16 24.5H17V25.5H16V24.5Z" fill="black"/>
<path d="M18 24.5H19V25.5H18V24.5Z" fill="black"/>
<path d="M19 23.5H20V24.5H19V23.5Z" fill="black"/>
<path d="M20 22.5H21V23.5H20V22.5Z" fill="black"/>
<path d="M15 25.5H16V26.5H15V25.5Z" fill="black"/>
<path d="M17 25.5H18V26.5H17V25.5Z" fill="black"/>
<path d="M16 26.5H17V27.5H16V26.5Z" fill="black"/>
<path d="M18 26.5H19V27.5H18V26.5Z" fill="black"/>
<path d="M19 25.5H20V26.5H19V25.5Z" fill="black"/>
<path d="M20 24.5H21V25.5H20V24.5Z" fill="black"/>
<path d="M18 9.5H19V10.5H18V9.5Z" fill="black"/>
<path d="M27 9.5H28V10.5H27V9.5Z" fill="black"/>
<path d="M18 37.5H19V38.5H18V37.5Z" fill="black"/>
<path d="M27 37.5H28V38.5H27V37.5Z" fill="black"/>
<path d="M19 9.5H20V10.5H19V9.5Z" fill="black"/>
<path d="M28 9.5H29V10.5H28V9.5Z" fill="black"/>
<path d="M19 37.5H20V38.5H19V37.5Z" fill="black"/>
<path d="M28 37.5H29V38.5H28V37.5Z" fill="black"/>
<path d="M20 9.5H21V10.5H20V9.5Z" fill="black"/>
<path d="M29 9.5H30V10.5H29V9.5Z" fill="black"/>
<path d="M20 37.5H21V38.5H20V37.5Z" fill="black"/>
<path d="M29 37.5H30V38.5H29V37.5Z" fill="black"/>
<path d="M30 36.5H31V37.5H30V36.5Z" fill="black"/>
<path d="M17 36.5H18V37.5H17V36.5Z" fill="black"/>
<path d="M21 38.5H22V39.5H21V38.5Z" fill="black"/>
<path d="M21 8.5H22V9.5H21V8.5Z" fill="black"/>
<path d="M22 38.5H23V39.5H22V38.5Z" fill="black"/>
<path d="M22 8.5H23V9.5H22V8.5Z" fill="black"/>
<path d="M23 38.5H24V39.5H23V38.5Z" fill="black"/>
<path d="M23 8.5H24V9.5H23V8.5Z" fill="black"/>
<path d="M24 38.5H25V39.5H24V38.5Z" fill="black"/>
<path d="M24 8.5H25V9.5H24V8.5Z" fill="black"/>
<path d="M25 38.5H26V39.5H25V38.5Z" fill="black"/>
<path d="M25 8.5H26V9.5H25V8.5Z" fill="black"/>
<path d="M26 38.5H27V39.5H26V38.5Z" fill="black"/>
<path d="M26 8.5H27V9.5H26V8.5Z" fill="black"/>
<path d="M26 9.5H27V10.5H26V9.5Z" fill="black"/>
<path d="M30 10.5H31V11.5H30V10.5Z" fill="black"/>
<path d="M15 11.5H16V12.5H15V11.5Z" fill="black"/>
<path d="M14 12.5H15V13.5H14V12.5Z" fill="black"/>
<path d="M13 13.5H14V14.5H13V13.5Z" fill="black"/>
<path d="M12 14.5H13V15.5H12V14.5Z" fill="black"/>
<path d="M37 27.5H38V28.5H37V27.5Z" fill="black"/>
<path d="M10 28.5H11V29.5H10V28.5Z" fill="black"/>
<path d="M11 30.5H12V31.5H11V30.5Z" fill="black"/>
<path d="M36 30.5H37V31.5H36V30.5Z" fill="black"/>
<path d="M11 15.5H12V16.5H11V15.5Z" fill="black"/>
<path d="M10 18.5H11V19.5H10V18.5Z" fill="black"/>
<path d="M9 21.5H10V22.5H9V21.5Z" fill="black"/>
<path d="M38 21.5H39V22.5H38V21.5Z" fill="black"/>
<path d="M9 25.5H10V26.5H9V25.5Z" fill="black"/>
<path d="M38 25.5H39V26.5H38V25.5Z" fill="black"/>
<path d="M9 25.5H10V26.5H9V25.5Z" fill="black"/>
<path d="M38 25.5H39V26.5H38V25.5Z" fill="black"/>
<path d="M37 18.5H38V19.5H37V18.5Z" fill="black"/>
<path d="M36 16.5H37V17.5H36V16.5Z" fill="black"/>
<path d="M37 28.5H38V29.5H37V28.5Z" fill="black"/>
<path d="M10 29.5H11V30.5H10V29.5Z" fill="black"/>
<path d="M11 31.5H12V32.5H11V31.5Z" fill="black"/>
<path d="M12 32.5H13V33.5H12V32.5Z" fill="black"/>
<path d="M13 33.5H14V34.5H13V33.5Z" fill="black"/>
<path d="M14 34.5H15V35.5H14V34.5Z" fill="black"/>
<path d="M15 35.5H16V36.5H15V35.5Z" fill="black"/>
<path d="M16 36.5H17V37.5H16V36.5Z" fill="black"/>
<path d="M31 36.5H32V37.5H31V36.5Z" fill="black"/>
<path d="M32 35.5H33V36.5H32V35.5Z" fill="black"/>
<path d="M33 34.5H34V35.5H33V34.5Z" fill="black"/>
<path d="M34 33.5H35V34.5H34V33.5Z" fill="black"/>
<path d="M35 32.5H36V33.5H35V32.5Z" fill="black"/>
<path d="M36 31.5H37V32.5H36V31.5Z" fill="black"/>
<path d="M11 16.5H12V17.5H11V16.5Z" fill="black"/>
<path d="M10 19.5H11V20.5H10V19.5Z" fill="black"/>
<path d="M9 22.5H10V23.5H9V22.5Z" fill="black"/>
<path d="M38 22.5H39V23.5H38V22.5Z" fill="black"/>
<path d="M9 26.5H10V27.5H9V26.5Z" fill="black"/>
<path d="M38 26.5H39V27.5H38V26.5Z" fill="black"/>
<path d="M9 26.5H10V27.5H9V26.5Z" fill="black"/>
<path d="M38 26.5H39V27.5H38V26.5Z" fill="black"/>
<path d="M37 19.5H38V20.5H37V19.5Z" fill="black"/>
<path d="M36 17.5H37V18.5H36V17.5Z" fill="black"/>
<path d="M37 29.5H38V30.5H37V29.5Z" fill="black"/>
</svg>
