<svg width="48" height="48" viewBox="0 0 48 48" fill="none" xmlns="http://www.w3.org/2000/svg">
<path d="M18 16H19V17H18V16Z" fill="black"/>
<path d="M19 16H20V17H19V16Z" fill="black"/>
<path d="M20 16H21V17H20V16Z" fill="black"/>
<path d="M21 16H22V17H21V16Z" fill="black"/>
<path d="M22 16H23V17H22V16Z" fill="black"/>
<path d="M23 16H24V17H23V16Z" fill="black"/>
<path d="M24 16H25V17H24V16Z" fill="black"/>
<path d="M25 16H26V17H25V16Z" fill="black"/>
<path d="M26 16H27V17H26V16Z" fill="black"/>
<path d="M27 16H28V17H27V16Z" fill="black"/>
<path d="M28 16H29V17H28V16Z" fill="black"/>
<path d="M29 16H30V17H29V16Z" fill="black"/>
<path d="M30 17H31V18H30V17Z" fill="black"/>
<path d="M31 18H32V19H31V18Z" fill="black"/>
<path d="M31 19H32V20H31V19Z" fill="black"/>
<path d="M31 20H32V21H31V20Z" fill="black"/>
<path d="M31 21H32V22H31V21Z" fill="black"/>
<path d="M31 22H32V23H31V22Z" fill="black"/>
<path d="M31 23H32V24H31V23Z" fill="black"/>
<path d="M31 24H32V25H31V24Z" fill="black"/>
<path d="M31 25H32V26H31V25Z" fill="black"/>
<path d="M31 26H32V27H31V26Z" fill="black"/>
<path d="M30 27H31V28H30V27Z" fill="black"/>
<path d="M29 28H30V29H29V28Z" fill="black"/>
<path d="M28 28H29V29H28V28Z" fill="black"/>
<path d="M27 28H28V29H27V28Z" fill="black"/>
<path d="M26 28H27V29H26V28Z" fill="black"/>
<path d="M25 28H26V29H25V28Z" fill="black"/>
<path d="M24 28H25V29H24V28Z" fill="black"/>
<path d="M23 28H24V29H23V28Z" fill="black"/>
<path d="M22 28H23V29H22V28Z" fill="black"/>
<path d="M21 28H22V29H21V28Z" fill="black"/>
<path d="M20 29H21V30H20V29Z" fill="black"/>
<path d="M19 30H20V31H19V30Z" fill="black"/>
<path d="M18 31H19V32H18V31Z" fill="black"/>
<path d="M18 30H19V31H18V30Z" fill="black"/>
<path d="M18 29H19V30H18V29Z" fill="black"/>
<path d="M18 28H19V29H18V28Z" fill="black"/>
<path d="M17 27H18V28H17V27Z" fill="black"/>
<path d="M16 26H17V27H16V26Z" fill="black"/>
<path d="M16 25H17V26H16V25Z" fill="black"/>
<path d="M16 24H17V25H16V24Z" fill="black"/>
<path d="M16 23H17V24H16V23Z" fill="black"/>
<path d="M16 22H17V23H16V22Z" fill="black"/>
<path d="M16 21H17V22H16V21Z" fill="black"/>
<path d="M16 20H17V21H16V20Z" fill="black"/>
<path d="M16 19H17V20H16V19Z" fill="black"/>
<path d="M16 18H17V19H16V18Z" fill="black"/>
<path d="M17 17H18V18H17V17Z" fill="black"/>
<path d="M21 19H22V20H21V19Z" fill="black"/>
<path d="M25 19H26V20H25V19Z" fill="black"/>
<path d="M23 22H24V23H23V22Z" fill="black"/>
<path d="M23 25H24V26H23V25Z" fill="black"/>
<path d="M22 19H23V20H22V19Z" fill="black"/>
<path d="M26 19H27V20H26V19Z" fill="black"/>
<path d="M24 22H25V23H24V22Z" fill="black"/>
<path d="M24 21H25V22H24V21Z" fill="black"/>
<path d="M25 21H26V22H25V21Z" fill="black"/>
<path d="M25 18H26V19H25V18Z" fill="black"/>
<path d="M24 18H25V19H24V18Z" fill="black"/>
<path d="M23 18H24V19H23V18Z" fill="black"/>
<path d="M22 18H23V19H22V18Z" fill="black"/>
<path d="M24 25H25V26H24V25Z" fill="black"/>
<path d="M22 20H23V21H22V20Z" fill="black"/>
<path d="M26 20H27V21H26V20Z" fill="black"/>
<path d="M24 23H25V24H24V23Z" fill="black"/>
<path d="M24 26H25V27H24V26Z" fill="black"/>
<path d="M21 20H22V21H21V20Z" fill="black"/>
<path d="M25 20H26V21H25V20Z" fill="black"/>
<path d="M23 23H24V24H23V23Z" fill="black"/>
<path d="M23 26H24V27H23V26Z" fill="black"/>
</svg>
